<mxfile host="app.diagrams.net" modified="2024-03-08T13:49:51.008Z" agent="Mozilla/5.0 (Macintosh; Intel Mac OS X 10_15_7) AppleWebKit/605.1.15 (KHTML, like Gecko) Version/17.1 Safari/605.1.15" etag="3tyQ6HkovOF6FYYZH0ip" version="23.1.7" type="device">
  <diagram name="Sida-1" id="YUBVa8yf24fu2AFU5YBJ">
    <mxGraphModel dx="1865" dy="2425" grid="1" gridSize="10" guides="1" tooltips="1" connect="1" arrows="1" fold="1" page="1" pageScale="1" pageWidth="827" pageHeight="1169" math="0" shadow="0">
      <root>
        <mxCell id="0" />
        <mxCell id="1" parent="0" />
        <mxCell id="zSwx9xJ70yb3x-qx0YBj-57" value="java awt" style="shape=folder;fontStyle=1;spacingTop=10;tabWidth=40;tabHeight=14;tabPosition=left;html=1;whiteSpace=wrap;labelPosition=center;verticalLabelPosition=top;align=center;verticalAlign=bottom;spacing=-30;fillColor=#d0cee2;strokeColor=#56517e;" vertex="1" parent="1">
          <mxGeometry x="20" y="320" width="180" height="400" as="geometry" />
        </mxCell>
        <mxCell id="zSwx9xJ70yb3x-qx0YBj-97" value="towers" style="shape=folder;fontStyle=1;spacingTop=10;tabWidth=40;tabHeight=14;tabPosition=left;html=1;whiteSpace=wrap;labelPosition=center;verticalLabelPosition=top;align=center;verticalAlign=bottom;spacing=-30;fillColor=#bac8d3;strokeColor=#23445d;" vertex="1" parent="1">
          <mxGeometry x="560" y="-520" width="195" height="260" as="geometry" />
        </mxCell>
        <mxCell id="zSwx9xJ70yb3x-qx0YBj-48" value="swing" style="shape=folder;fontStyle=1;spacingTop=10;tabWidth=40;tabHeight=14;tabPosition=left;html=1;whiteSpace=wrap;labelPosition=center;verticalLabelPosition=top;align=center;verticalAlign=bottom;spacing=-30;fillColor=#b0e3e6;strokeColor=#0e8088;" vertex="1" parent="1">
          <mxGeometry x="20" y="20" width="190" height="270" as="geometry" />
        </mxCell>
        <mxCell id="zSwx9xJ70yb3x-qx0YBj-25" value="core" style="shape=folder;fontStyle=1;spacingTop=10;tabWidth=40;tabHeight=14;tabPosition=left;html=1;whiteSpace=wrap;labelPosition=center;verticalLabelPosition=top;align=center;verticalAlign=bottom;spacing=-31;fillColor=#fff2cc;strokeColor=#d6b656;" vertex="1" parent="1">
          <mxGeometry x="490" y="-220" width="1070" height="780" as="geometry" />
        </mxCell>
        <mxCell id="zSwx9xJ70yb3x-qx0YBj-1" value="GameFrame" style="swimlane;fontStyle=1;align=center;verticalAlign=top;childLayout=stackLayout;horizontal=1;startSize=26;horizontalStack=0;resizeParent=1;resizeParentMax=0;resizeLast=0;collapsible=1;marginBottom=0;whiteSpace=wrap;html=1;" vertex="1" parent="1">
          <mxGeometry x="790" y="250" width="160" height="250" as="geometry" />
        </mxCell>
        <mxCell id="zSwx9xJ70yb3x-qx0YBj-2" value="- Gamepanel: GamePanel&lt;br&gt;- Timer: timer" style="text;strokeColor=none;fillColor=none;align=left;verticalAlign=top;spacingLeft=4;spacingRight=4;overflow=hidden;rotatable=0;points=[[0,0.5],[1,0.5]];portConstraint=eastwest;whiteSpace=wrap;html=1;" vertex="1" parent="zSwx9xJ70yb3x-qx0YBj-1">
          <mxGeometry y="26" width="160" height="54" as="geometry" />
        </mxCell>
        <mxCell id="zSwx9xJ70yb3x-qx0YBj-3" value="" style="line;strokeWidth=1;fillColor=none;align=left;verticalAlign=middle;spacingTop=-1;spacingLeft=3;spacingRight=3;rotatable=0;labelPosition=right;points=[];portConstraint=eastwest;strokeColor=inherit;" vertex="1" parent="zSwx9xJ70yb3x-qx0YBj-1">
          <mxGeometry y="80" width="160" height="8" as="geometry" />
        </mxCell>
        <mxCell id="zSwx9xJ70yb3x-qx0YBj-4" value="+ main&lt;br&gt;+ actionPerformed&lt;br&gt;&amp;nbsp;(ActionEvent arg0)" style="text;strokeColor=none;fillColor=none;align=left;verticalAlign=top;spacingLeft=4;spacingRight=4;overflow=hidden;rotatable=0;points=[[0,0.5],[1,0.5]];portConstraint=eastwest;whiteSpace=wrap;html=1;" vertex="1" parent="zSwx9xJ70yb3x-qx0YBj-1">
          <mxGeometry y="88" width="160" height="162" as="geometry" />
        </mxCell>
        <mxCell id="zSwx9xJ70yb3x-qx0YBj-5" value="Block" style="swimlane;fontStyle=1;align=center;verticalAlign=top;childLayout=stackLayout;horizontal=1;startSize=26;horizontalStack=0;resizeParent=1;resizeParentMax=0;resizeLast=0;collapsible=1;marginBottom=0;whiteSpace=wrap;html=1;" vertex="1" parent="1">
          <mxGeometry x="1285" y="175" width="250" height="260" as="geometry" />
        </mxCell>
        <mxCell id="zSwx9xJ70yb3x-qx0YBj-6" value="+ various Getters and Setters for all fields&lt;br&gt;- traversable: boolean&lt;br&gt;&amp;nbsp;- Tower: tower&lt;br&gt;&amp;nbsp;- terrain: int&lt;br&gt;&amp;nbsp;-&lt;u&gt;width, height: int&lt;/u&gt;&lt;br&gt;&amp;nbsp;- row, col: int&lt;br&gt;&amp;nbsp;- borderOrientation: boolean[]" style="text;strokeColor=none;fillColor=none;align=left;verticalAlign=top;spacingLeft=4;spacingRight=4;overflow=hidden;rotatable=0;points=[[0,0.5],[1,0.5]];portConstraint=eastwest;whiteSpace=wrap;html=1;" vertex="1" parent="zSwx9xJ70yb3x-qx0YBj-5">
          <mxGeometry y="26" width="250" height="124" as="geometry" />
        </mxCell>
        <mxCell id="zSwx9xJ70yb3x-qx0YBj-7" value="" style="line;strokeWidth=1;fillColor=none;align=left;verticalAlign=middle;spacingTop=-1;spacingLeft=3;spacingRight=3;rotatable=0;labelPosition=right;points=[];portConstraint=eastwest;strokeColor=inherit;" vertex="1" parent="zSwx9xJ70yb3x-qx0YBj-5">
          <mxGeometry y="150" width="250" height="8" as="geometry" />
        </mxCell>
        <mxCell id="zSwx9xJ70yb3x-qx0YBj-8" value="+ placeTower (Tower): boolean&lt;br&gt;&amp;nbsp;+ paint (Graphics, int, int): void&lt;br&gt;&amp;nbsp;+ createGradientImage (int, int, color, color): gradientImage&lt;br&gt;&amp;nbsp;+ createCompatibaleImage (int, int): GraphicsEnvironment" style="text;strokeColor=none;fillColor=none;align=left;verticalAlign=top;spacingLeft=4;spacingRight=4;overflow=hidden;rotatable=0;points=[[0,0.5],[1,0.5]];portConstraint=eastwest;whiteSpace=wrap;html=1;" vertex="1" parent="zSwx9xJ70yb3x-qx0YBj-5">
          <mxGeometry y="158" width="250" height="102" as="geometry" />
        </mxCell>
        <mxCell id="zSwx9xJ70yb3x-qx0YBj-101" style="edgeStyle=orthogonalEdgeStyle;rounded=0;orthogonalLoop=1;jettySize=auto;html=1;" edge="1" parent="1" source="zSwx9xJ70yb3x-qx0YBj-13" target="zSwx9xJ70yb3x-qx0YBj-30">
          <mxGeometry relative="1" as="geometry">
            <Array as="points">
              <mxPoint x="970" y="140" />
              <mxPoint x="970" y="550" />
              <mxPoint x="470" y="550" />
            </Array>
          </mxGeometry>
        </mxCell>
        <mxCell id="zSwx9xJ70yb3x-qx0YBj-132" style="edgeStyle=orthogonalEdgeStyle;rounded=0;orthogonalLoop=1;jettySize=auto;html=1;endArrow=block;endFill=1;" edge="1" parent="1" source="zSwx9xJ70yb3x-qx0YBj-13">
          <mxGeometry relative="1" as="geometry">
            <mxPoint x="460" y="-150" as="targetPoint" />
            <Array as="points">
              <mxPoint x="780" y="-150" />
              <mxPoint x="780" y="-150" />
            </Array>
          </mxGeometry>
        </mxCell>
        <mxCell id="zSwx9xJ70yb3x-qx0YBj-13" value="GameObject&lt;br&gt;{abstract}" style="swimlane;fontStyle=1;align=center;verticalAlign=top;childLayout=stackLayout;horizontal=1;startSize=40;horizontalStack=0;resizeParent=1;resizeParentMax=0;resizeLast=0;collapsible=1;marginBottom=0;whiteSpace=wrap;html=1;" vertex="1" parent="1">
          <mxGeometry x="875" y="-174" width="290" height="250" as="geometry" />
        </mxCell>
        <mxCell id="zSwx9xJ70yb3x-qx0YBj-14" value="- posX, posY, direction, radius: double&lt;br&gt;- image: image&lt;br&gt;+" style="text;strokeColor=none;fillColor=none;align=left;verticalAlign=top;spacingLeft=4;spacingRight=4;overflow=hidden;rotatable=0;points=[[0,0.5],[1,0.5]];portConstraint=eastwest;whiteSpace=wrap;html=1;" vertex="1" parent="zSwx9xJ70yb3x-qx0YBj-13">
          <mxGeometry y="40" width="290" height="60" as="geometry" />
        </mxCell>
        <mxCell id="zSwx9xJ70yb3x-qx0YBj-15" value="" style="line;strokeWidth=1;fillColor=none;align=left;verticalAlign=middle;spacingTop=-1;spacingLeft=3;spacingRight=3;rotatable=0;labelPosition=right;points=[];portConstraint=eastwest;strokeColor=inherit;" vertex="1" parent="zSwx9xJ70yb3x-qx0YBj-13">
          <mxGeometry y="100" width="290" height="8" as="geometry" />
        </mxCell>
        <mxCell id="zSwx9xJ70yb3x-qx0YBj-16" value="+ moveForward (double): void&lt;br&gt;&amp;nbsp;+ getDistance (GameObject): double&lt;br&gt;&amp;nbsp;+ getDistance(double, double): double&lt;br&gt;&amp;nbsp;+ getAngle (GameObject): double&lt;br&gt;&amp;nbsp;+ getAngle(double, double): double&lt;br&gt;+ paint(Graphics g): void&lt;br&gt;&amp;nbsp;+&lt;i&gt;&amp;nbsp;update(int): void&lt;/i&gt;&lt;br&gt;+ getters and setters for all fields" style="text;strokeColor=none;fillColor=none;align=left;verticalAlign=top;spacingLeft=4;spacingRight=4;overflow=hidden;rotatable=0;points=[[0,0.5],[1,0.5]];portConstraint=eastwest;whiteSpace=wrap;html=1;" vertex="1" parent="zSwx9xJ70yb3x-qx0YBj-13">
          <mxGeometry y="108" width="290" height="142" as="geometry" />
        </mxCell>
        <mxCell id="zSwx9xJ70yb3x-qx0YBj-130" style="edgeStyle=orthogonalEdgeStyle;rounded=0;orthogonalLoop=1;jettySize=auto;html=1;endArrow=open;endFill=0;entryX=0.359;entryY=1;entryDx=0;entryDy=0;entryPerimeter=0;" edge="1" parent="1" source="zSwx9xJ70yb3x-qx0YBj-17" target="zSwx9xJ70yb3x-qx0YBj-97">
          <mxGeometry relative="1" as="geometry">
            <mxPoint x="640" y="-250" as="targetPoint" />
            <Array as="points" />
          </mxGeometry>
        </mxCell>
        <mxCell id="zSwx9xJ70yb3x-qx0YBj-131" style="edgeStyle=orthogonalEdgeStyle;rounded=0;orthogonalLoop=1;jettySize=auto;html=1;entryX=1;entryY=0.5;entryDx=0;entryDy=0;dashed=1;endArrow=open;endFill=0;" edge="1" parent="1" source="zSwx9xJ70yb3x-qx0YBj-17" target="zSwx9xJ70yb3x-qx0YBj-92">
          <mxGeometry relative="1" as="geometry">
            <Array as="points">
              <mxPoint x="630" y="620" />
              <mxPoint x="1590" y="620" />
              <mxPoint x="1590" y="-92" />
            </Array>
          </mxGeometry>
        </mxCell>
        <mxCell id="zSwx9xJ70yb3x-qx0YBj-17" value="Map" style="swimlane;fontStyle=1;align=center;verticalAlign=top;childLayout=stackLayout;horizontal=1;startSize=26;horizontalStack=0;resizeParent=1;resizeParentMax=0;resizeLast=0;collapsible=1;marginBottom=0;whiteSpace=wrap;html=1;" vertex="1" parent="1">
          <mxGeometry x="515" y="175" width="230" height="230" as="geometry" />
        </mxCell>
        <mxCell id="zSwx9xJ70yb3x-qx0YBj-18" value="- blockArray: Block[][]&lt;br&gt;- numRows, numCols: int&lt;br&gt;&amp;nbsp;- endBlock: Block&lt;div&gt;&lt;br/&gt;&lt;/div&gt;" style="text;strokeColor=none;fillColor=none;align=left;verticalAlign=top;spacingLeft=4;spacingRight=4;overflow=hidden;rotatable=0;points=[[0,0.5],[1,0.5]];portConstraint=eastwest;whiteSpace=wrap;html=1;" vertex="1" parent="zSwx9xJ70yb3x-qx0YBj-17">
          <mxGeometry y="26" width="230" height="74" as="geometry" />
        </mxCell>
        <mxCell id="zSwx9xJ70yb3x-qx0YBj-19" value="" style="line;strokeWidth=1;fillColor=none;align=left;verticalAlign=middle;spacingTop=-1;spacingLeft=3;spacingRight=3;rotatable=0;labelPosition=right;points=[];portConstraint=eastwest;strokeColor=inherit;" vertex="1" parent="zSwx9xJ70yb3x-qx0YBj-17">
          <mxGeometry y="100" width="230" height="8" as="geometry" />
        </mxCell>
        <mxCell id="zSwx9xJ70yb3x-qx0YBj-20" value="+ paint(Graphics): void&lt;br&gt;+ getStartDirection: int&lt;br&gt;&amp;nbsp;+ getFinishDirection: int&lt;br&gt;&amp;nbsp;+ determineBlockOrientation():void&lt;br&gt;&amp;nbsp;+ getPath(): Block[]&lt;br&gt;&amp;nbsp;+ placeTower(int, int, Tower): boolean&lt;br&gt;&amp;nbsp;+ getBlock (int, int): Block" style="text;strokeColor=none;fillColor=none;align=left;verticalAlign=top;spacingLeft=4;spacingRight=4;overflow=hidden;rotatable=0;points=[[0,0.5],[1,0.5]];portConstraint=eastwest;whiteSpace=wrap;html=1;" vertex="1" parent="zSwx9xJ70yb3x-qx0YBj-17">
          <mxGeometry y="108" width="230" height="122" as="geometry" />
        </mxCell>
        <mxCell id="zSwx9xJ70yb3x-qx0YBj-109" style="edgeStyle=orthogonalEdgeStyle;rounded=0;orthogonalLoop=1;jettySize=auto;html=1;endArrow=open;endFill=0;" edge="1" parent="1" source="zSwx9xJ70yb3x-qx0YBj-31" target="zSwx9xJ70yb3x-qx0YBj-5">
          <mxGeometry relative="1" as="geometry">
            <Array as="points">
              <mxPoint x="1490" y="-230" />
            </Array>
          </mxGeometry>
        </mxCell>
        <mxCell id="zSwx9xJ70yb3x-qx0YBj-110" style="edgeStyle=orthogonalEdgeStyle;rounded=0;orthogonalLoop=1;jettySize=auto;html=1;dashed=1;endArrow=open;endFill=0;exitX=0.75;exitY=1;exitDx=0;exitDy=0;exitPerimeter=0;" edge="1" parent="1" source="zSwx9xJ70yb3x-qx0YBj-31">
          <mxGeometry relative="1" as="geometry">
            <mxPoint x="404" y="40" as="sourcePoint" />
            <mxPoint x="190" y="610" as="targetPoint" />
            <Array as="points">
              <mxPoint x="350" y="-60" />
              <mxPoint x="350" y="610" />
            </Array>
          </mxGeometry>
        </mxCell>
        <mxCell id="zSwx9xJ70yb3x-qx0YBj-31" value="monsters" style="shape=folder;fontStyle=1;spacingTop=10;tabWidth=40;tabHeight=14;tabPosition=left;html=1;whiteSpace=wrap;labelPosition=center;verticalLabelPosition=top;align=center;verticalAlign=bottom;spacing=-30;fillColor=#fad7ac;strokeColor=#b46504;" vertex="1" parent="1">
          <mxGeometry x="260" y="-320" width="195" height="260" as="geometry" />
        </mxCell>
        <mxCell id="zSwx9xJ70yb3x-qx0YBj-32" value="Monster" style="swimlane;fontStyle=1;align=center;verticalAlign=top;childLayout=stackLayout;horizontal=1;startSize=26;horizontalStack=0;resizeParent=1;resizeParentMax=0;resizeLast=0;collapsible=1;marginBottom=0;whiteSpace=wrap;html=1;" vertex="1" parent="1">
          <mxGeometry x="277.5" y="-270" width="160" height="180" as="geometry" />
        </mxCell>
        <mxCell id="zSwx9xJ70yb3x-qx0YBj-33" value="- path: Block[]&lt;br&gt;- destinationCount: int&lt;br&gt;&amp;nbsp;- speed, health: double&lt;br&gt;&amp;nbsp;- gamepanel: GamePanel" style="text;strokeColor=none;fillColor=none;align=left;verticalAlign=top;spacingLeft=4;spacingRight=4;overflow=hidden;rotatable=0;points=[[0,0.5],[1,0.5]];portConstraint=eastwest;whiteSpace=wrap;html=1;" vertex="1" parent="zSwx9xJ70yb3x-qx0YBj-32">
          <mxGeometry y="26" width="160" height="74" as="geometry" />
        </mxCell>
        <mxCell id="zSwx9xJ70yb3x-qx0YBj-34" value="" style="line;strokeWidth=1;fillColor=none;align=left;verticalAlign=middle;spacingTop=-1;spacingLeft=3;spacingRight=3;rotatable=0;labelPosition=right;points=[];portConstraint=eastwest;strokeColor=inherit;" vertex="1" parent="zSwx9xJ70yb3x-qx0YBj-32">
          <mxGeometry y="100" width="160" height="8" as="geometry" />
        </mxCell>
        <mxCell id="zSwx9xJ70yb3x-qx0YBj-35" value="+ update(int): void&lt;br&gt;+ paint(Graphics:void&lt;br&gt;&amp;nbsp;+getHealth():double&lt;br&gt;&amp;nbsp;+ setHealth(double): void" style="text;strokeColor=none;fillColor=none;align=left;verticalAlign=top;spacingLeft=4;spacingRight=4;overflow=hidden;rotatable=0;points=[[0,0.5],[1,0.5]];portConstraint=eastwest;whiteSpace=wrap;html=1;" vertex="1" parent="zSwx9xJ70yb3x-qx0YBj-32">
          <mxGeometry y="108" width="160" height="72" as="geometry" />
        </mxCell>
        <mxCell id="zSwx9xJ70yb3x-qx0YBj-36" value="JFrame" style="swimlane;fontStyle=1;align=center;verticalAlign=top;childLayout=stackLayout;horizontal=1;startSize=26;horizontalStack=0;resizeParent=1;resizeParentMax=0;resizeLast=0;collapsible=1;marginBottom=0;whiteSpace=wrap;html=1;" vertex="1" parent="1">
          <mxGeometry x="30" y="60" width="160" height="34" as="geometry" />
        </mxCell>
        <mxCell id="zSwx9xJ70yb3x-qx0YBj-40" value="Color" style="swimlane;fontStyle=1;align=center;verticalAlign=top;childLayout=stackLayout;horizontal=1;startSize=26;horizontalStack=0;resizeParent=1;resizeParentMax=0;resizeLast=0;collapsible=1;marginBottom=0;whiteSpace=wrap;html=1;" vertex="1" parent="1">
          <mxGeometry x="30" y="546" width="160" height="34" as="geometry" />
        </mxCell>
        <mxCell id="zSwx9xJ70yb3x-qx0YBj-49" value="Timer" style="swimlane;fontStyle=1;align=center;verticalAlign=top;childLayout=stackLayout;horizontal=1;startSize=26;horizontalStack=0;resizeParent=1;resizeParentMax=0;resizeLast=0;collapsible=1;marginBottom=0;whiteSpace=wrap;html=1;" vertex="1" parent="1">
          <mxGeometry x="30" y="164" width="160" height="34" as="geometry" />
        </mxCell>
        <mxCell id="zSwx9xJ70yb3x-qx0YBj-53" value="JPanel" style="swimlane;fontStyle=1;align=center;verticalAlign=top;childLayout=stackLayout;horizontal=1;startSize=26;horizontalStack=0;resizeParent=1;resizeParentMax=0;resizeLast=0;collapsible=1;marginBottom=0;whiteSpace=wrap;html=1;" vertex="1" parent="1">
          <mxGeometry x="30" y="110" width="160" height="34" as="geometry" />
        </mxCell>
        <mxCell id="zSwx9xJ70yb3x-qx0YBj-58" value="ActionEvent" style="swimlane;fontStyle=1;align=center;verticalAlign=top;childLayout=stackLayout;horizontal=1;startSize=26;horizontalStack=0;resizeParent=1;resizeParentMax=0;resizeLast=0;collapsible=1;marginBottom=0;whiteSpace=wrap;html=1;" vertex="1" parent="1">
          <mxGeometry x="30" y="378" width="160" height="34" as="geometry" />
        </mxCell>
        <mxCell id="zSwx9xJ70yb3x-qx0YBj-59" value="Graphics" style="swimlane;fontStyle=1;align=center;verticalAlign=top;childLayout=stackLayout;horizontal=1;startSize=26;horizontalStack=0;resizeParent=1;resizeParentMax=0;resizeLast=0;collapsible=1;marginBottom=0;whiteSpace=wrap;html=1;" vertex="1" parent="1">
          <mxGeometry x="30" y="478" width="160" height="34" as="geometry" />
        </mxCell>
        <mxCell id="zSwx9xJ70yb3x-qx0YBj-60" value="Image" style="swimlane;fontStyle=1;align=center;verticalAlign=top;childLayout=stackLayout;horizontal=1;startSize=26;horizontalStack=0;resizeParent=1;resizeParentMax=0;resizeLast=0;collapsible=1;marginBottom=0;whiteSpace=wrap;html=1;" vertex="1" parent="1">
          <mxGeometry x="30" y="512" width="160" height="34" as="geometry" />
        </mxCell>
        <mxCell id="zSwx9xJ70yb3x-qx0YBj-61" value="Toolkit" style="swimlane;fontStyle=1;align=center;verticalAlign=top;childLayout=stackLayout;horizontal=1;startSize=26;horizontalStack=0;resizeParent=1;resizeParentMax=0;resizeLast=0;collapsible=1;marginBottom=0;whiteSpace=wrap;html=1;" vertex="1" parent="1">
          <mxGeometry x="30" y="601" width="160" height="34" as="geometry" />
        </mxCell>
        <mxCell id="zSwx9xJ70yb3x-qx0YBj-65" value="ActionListener" style="swimlane;fontStyle=1;align=center;verticalAlign=top;childLayout=stackLayout;horizontal=1;startSize=26;horizontalStack=0;resizeParent=1;resizeParentMax=0;resizeLast=0;collapsible=1;marginBottom=0;whiteSpace=wrap;html=1;" vertex="1" parent="1">
          <mxGeometry x="30" y="412" width="160" height="34" as="geometry" />
        </mxCell>
        <mxCell id="zSwx9xJ70yb3x-qx0YBj-66" value="MouseEvent" style="swimlane;fontStyle=1;align=center;verticalAlign=top;childLayout=stackLayout;horizontal=1;startSize=26;horizontalStack=0;resizeParent=1;resizeParentMax=0;resizeLast=0;collapsible=1;marginBottom=0;whiteSpace=wrap;html=1;" vertex="1" parent="1">
          <mxGeometry x="30" y="635" width="160" height="34" as="geometry" />
        </mxCell>
        <mxCell id="zSwx9xJ70yb3x-qx0YBj-67" value="MouseListener" style="swimlane;fontStyle=1;align=center;verticalAlign=top;childLayout=stackLayout;horizontal=1;startSize=26;horizontalStack=0;resizeParent=1;resizeParentMax=0;resizeLast=0;collapsible=1;marginBottom=0;whiteSpace=wrap;html=1;" vertex="1" parent="1">
          <mxGeometry x="30" y="669" width="160" height="34" as="geometry" />
        </mxCell>
        <mxCell id="zSwx9xJ70yb3x-qx0YBj-103" style="edgeStyle=orthogonalEdgeStyle;rounded=0;orthogonalLoop=1;jettySize=auto;html=1;entryX=1;entryY=0.75;entryDx=0;entryDy=0;endArrow=open;endFill=0;" edge="1" parent="1" source="zSwx9xJ70yb3x-qx0YBj-85" target="zSwx9xJ70yb3x-qx0YBj-65">
          <mxGeometry relative="1" as="geometry">
            <Array as="points">
              <mxPoint x="1100" y="570" />
              <mxPoint x="270" y="570" />
              <mxPoint x="270" y="438" />
            </Array>
          </mxGeometry>
        </mxCell>
        <mxCell id="zSwx9xJ70yb3x-qx0YBj-85" value="GamePanel" style="swimlane;fontStyle=1;align=center;verticalAlign=top;childLayout=stackLayout;horizontal=1;startSize=26;horizontalStack=0;resizeParent=1;resizeParentMax=0;resizeLast=0;collapsible=1;marginBottom=0;whiteSpace=wrap;html=1;" vertex="1" parent="1">
          <mxGeometry x="985" y="175" width="250" height="200" as="geometry" />
        </mxCell>
        <mxCell id="zSwx9xJ70yb3x-qx0YBj-86" value="- gameObjects: GameObjects[]&lt;br&gt;- count: int&lt;br&gt;&amp;nbsp;- map: Map&lt;br&gt;&lt;div&gt;&lt;br&gt;&lt;/div&gt;" style="text;strokeColor=none;fillColor=none;align=left;verticalAlign=top;spacingLeft=4;spacingRight=4;overflow=hidden;rotatable=0;points=[[0,0.5],[1,0.5]];portConstraint=eastwest;whiteSpace=wrap;html=1;" vertex="1" parent="zSwx9xJ70yb3x-qx0YBj-85">
          <mxGeometry y="26" width="250" height="54" as="geometry" />
        </mxCell>
        <mxCell id="zSwx9xJ70yb3x-qx0YBj-87" value="" style="line;strokeWidth=1;fillColor=none;align=left;verticalAlign=middle;spacingTop=-1;spacingLeft=3;spacingRight=3;rotatable=0;labelPosition=right;points=[];portConstraint=eastwest;strokeColor=inherit;" vertex="1" parent="zSwx9xJ70yb3x-qx0YBj-85">
          <mxGeometry y="80" width="250" height="8" as="geometry" />
        </mxCell>
        <mxCell id="zSwx9xJ70yb3x-qx0YBj-88" value="+ addGameObject(GameObject): void&lt;br&gt;+ deleteGameObject(GameObject): void&lt;br&gt;&amp;nbsp;+ getGameObjectArrayLength (int): count&lt;br&gt;&amp;nbsp;+ getMonsters():ArrayList&lt;br&gt;&amp;nbsp;+ paint(Graphics): void&lt;br&gt;&amp;nbsp;+ update(int): void&lt;br&gt;&amp;nbsp;+ mousePressed(MouseEvent): void&lt;br&gt;&lt;br&gt;&lt;div&gt;&lt;br&gt;&lt;/div&gt;" style="text;strokeColor=none;fillColor=none;align=left;verticalAlign=top;spacingLeft=4;spacingRight=4;overflow=hidden;rotatable=0;points=[[0,0.5],[1,0.5]];portConstraint=eastwest;whiteSpace=wrap;html=1;" vertex="1" parent="zSwx9xJ70yb3x-qx0YBj-85">
          <mxGeometry y="88" width="250" height="112" as="geometry" />
        </mxCell>
        <mxCell id="zSwx9xJ70yb3x-qx0YBj-89" value="UtilityMethods" style="swimlane;fontStyle=1;align=center;verticalAlign=top;childLayout=stackLayout;horizontal=1;startSize=26;horizontalStack=0;resizeParent=1;resizeParentMax=0;resizeLast=0;collapsible=1;marginBottom=0;whiteSpace=wrap;html=1;" vertex="1" parent="1">
          <mxGeometry x="1285" y="-174" width="160" height="130" as="geometry" />
        </mxCell>
        <mxCell id="zSwx9xJ70yb3x-qx0YBj-91" value="" style="line;strokeWidth=1;fillColor=none;align=left;verticalAlign=middle;spacingTop=-1;spacingLeft=3;spacingRight=3;rotatable=0;labelPosition=right;points=[];portConstraint=eastwest;strokeColor=inherit;" vertex="1" parent="zSwx9xJ70yb3x-qx0YBj-89">
          <mxGeometry y="26" width="160" height="8" as="geometry" />
        </mxCell>
        <mxCell id="zSwx9xJ70yb3x-qx0YBj-92" value="+ &lt;u&gt;getArrayLength&lt;/u&gt;(ArrayList): int&lt;br&gt;+ getArrayLength(Object[]): int" style="text;strokeColor=none;fillColor=none;align=left;verticalAlign=top;spacingLeft=4;spacingRight=4;overflow=hidden;rotatable=0;points=[[0,0.5],[1,0.5]];portConstraint=eastwest;whiteSpace=wrap;html=1;" vertex="1" parent="zSwx9xJ70yb3x-qx0YBj-89">
          <mxGeometry y="34" width="160" height="96" as="geometry" />
        </mxCell>
        <mxCell id="zSwx9xJ70yb3x-qx0YBj-93" value="Tower" style="swimlane;fontStyle=1;align=center;verticalAlign=top;childLayout=stackLayout;horizontal=1;startSize=26;horizontalStack=0;resizeParent=1;resizeParentMax=0;resizeLast=0;collapsible=1;marginBottom=0;whiteSpace=wrap;html=1;" vertex="1" parent="1">
          <mxGeometry x="577.5" y="-465" width="160" height="150" as="geometry" />
        </mxCell>
        <mxCell id="zSwx9xJ70yb3x-qx0YBj-94" value="- range, fireRate, damagePS, updateCount: double&lt;br&gt;&amp;nbsp;- gamepanel: Gamepanel" style="text;strokeColor=none;fillColor=none;align=left;verticalAlign=top;spacingLeft=4;spacingRight=4;overflow=hidden;rotatable=0;points=[[0,0.5],[1,0.5]];portConstraint=eastwest;whiteSpace=wrap;html=1;" vertex="1" parent="zSwx9xJ70yb3x-qx0YBj-93">
          <mxGeometry y="26" width="160" height="64" as="geometry" />
        </mxCell>
        <mxCell id="zSwx9xJ70yb3x-qx0YBj-95" value="" style="line;strokeWidth=1;fillColor=none;align=left;verticalAlign=middle;spacingTop=-1;spacingLeft=3;spacingRight=3;rotatable=0;labelPosition=right;points=[];portConstraint=eastwest;strokeColor=inherit;" vertex="1" parent="zSwx9xJ70yb3x-qx0YBj-93">
          <mxGeometry y="90" width="160" height="8" as="geometry" />
        </mxCell>
        <mxCell id="zSwx9xJ70yb3x-qx0YBj-96" value="+ update(int): void&amp;nbsp;&lt;br&gt;+ various Setters and Getters" style="text;strokeColor=none;fillColor=none;align=left;verticalAlign=top;spacingLeft=4;spacingRight=4;overflow=hidden;rotatable=0;points=[[0,0.5],[1,0.5]];portConstraint=eastwest;whiteSpace=wrap;html=1;" vertex="1" parent="zSwx9xJ70yb3x-qx0YBj-93">
          <mxGeometry y="98" width="160" height="52" as="geometry" />
        </mxCell>
        <mxCell id="zSwx9xJ70yb3x-qx0YBj-99" style="edgeStyle=orthogonalEdgeStyle;rounded=0;orthogonalLoop=1;jettySize=auto;html=1;endArrow=open;endFill=0;" edge="1" parent="1" source="zSwx9xJ70yb3x-qx0YBj-4">
          <mxGeometry relative="1" as="geometry">
            <mxPoint x="210" y="430" as="targetPoint" />
            <Array as="points">
              <mxPoint x="490" y="430" />
            </Array>
          </mxGeometry>
        </mxCell>
        <mxCell id="zSwx9xJ70yb3x-qx0YBj-102" style="edgeStyle=orthogonalEdgeStyle;rounded=0;orthogonalLoop=1;jettySize=auto;html=1;endArrow=open;endFill=0;" edge="1" parent="1" source="zSwx9xJ70yb3x-qx0YBj-85" target="zSwx9xJ70yb3x-qx0YBj-48">
          <mxGeometry relative="1" as="geometry">
            <mxPoint x="363.5200000000002" y="83.89399999999978" as="targetPoint" />
            <Array as="points">
              <mxPoint x="1110" y="84" />
            </Array>
          </mxGeometry>
        </mxCell>
        <mxCell id="zSwx9xJ70yb3x-qx0YBj-108" value="" style="endArrow=classic;html=1;rounded=0;entryX=0.338;entryY=-0.009;entryDx=0;entryDy=0;entryPerimeter=0;" edge="1" parent="1" target="zSwx9xJ70yb3x-qx0YBj-85">
          <mxGeometry width="50" height="50" relative="1" as="geometry">
            <mxPoint x="970" y="150" as="sourcePoint" />
            <mxPoint x="1110" y="164" as="targetPoint" />
            <Array as="points">
              <mxPoint x="1070" y="150" />
            </Array>
          </mxGeometry>
        </mxCell>
        <mxCell id="zSwx9xJ70yb3x-qx0YBj-113" style="edgeStyle=orthogonalEdgeStyle;rounded=0;orthogonalLoop=1;jettySize=auto;html=1;endArrow=open;endFill=0;" edge="1" parent="1">
          <mxGeometry relative="1" as="geometry">
            <mxPoint x="500" y="650" as="sourcePoint" />
            <mxPoint x="1170" y="380" as="targetPoint" />
            <Array as="points">
              <mxPoint x="500" y="670" />
              <mxPoint x="1170" y="670" />
            </Array>
          </mxGeometry>
        </mxCell>
        <mxCell id="zSwx9xJ70yb3x-qx0YBj-114" style="edgeStyle=orthogonalEdgeStyle;rounded=0;orthogonalLoop=1;jettySize=auto;html=1;endArrow=open;endFill=0;" edge="1" parent="1" source="zSwx9xJ70yb3x-qx0YBj-30">
          <mxGeometry relative="1" as="geometry">
            <mxPoint x="290" y="-50" as="targetPoint" />
          </mxGeometry>
        </mxCell>
        <mxCell id="zSwx9xJ70yb3x-qx0YBj-30" value="bullets" style="shape=folder;fontStyle=1;spacingTop=10;tabWidth=40;tabHeight=14;tabPosition=left;html=1;whiteSpace=wrap;fillColor=#dae8fc;strokeColor=#6c8ebf;labelPosition=center;verticalLabelPosition=top;align=center;verticalAlign=bottom;spacing=-31;" vertex="1" parent="1">
          <mxGeometry x="370" y="610" width="200" height="350" as="geometry" />
        </mxCell>
        <mxCell id="zSwx9xJ70yb3x-qx0YBj-26" value="Bullet" style="swimlane;fontStyle=1;align=center;verticalAlign=top;childLayout=stackLayout;horizontal=1;startSize=26;horizontalStack=0;resizeParent=1;resizeParentMax=0;resizeLast=0;collapsible=1;marginBottom=0;whiteSpace=wrap;html=1;" vertex="1" parent="1">
          <mxGeometry x="390" y="669" width="160" height="260" as="geometry" />
        </mxCell>
        <mxCell id="zSwx9xJ70yb3x-qx0YBj-27" value="- target: Monster&lt;br&gt;- bulletDamage: double&lt;br&gt;&amp;nbsp;+ gamePanel: GamePanel&lt;br&gt;&amp;nbsp;" style="text;strokeColor=none;fillColor=none;align=left;verticalAlign=top;spacingLeft=4;spacingRight=4;overflow=hidden;rotatable=0;points=[[0,0.5],[1,0.5]];portConstraint=eastwest;whiteSpace=wrap;html=1;" vertex="1" parent="zSwx9xJ70yb3x-qx0YBj-26">
          <mxGeometry y="26" width="160" height="64" as="geometry" />
        </mxCell>
        <mxCell id="zSwx9xJ70yb3x-qx0YBj-28" value="" style="line;strokeWidth=1;fillColor=none;align=left;verticalAlign=middle;spacingTop=-1;spacingLeft=3;spacingRight=3;rotatable=0;labelPosition=right;points=[];portConstraint=eastwest;strokeColor=inherit;" vertex="1" parent="zSwx9xJ70yb3x-qx0YBj-26">
          <mxGeometry y="90" width="160" height="8" as="geometry" />
        </mxCell>
        <mxCell id="zSwx9xJ70yb3x-qx0YBj-29" value="+ update(int): void&lt;br&gt;+ getBulletDamage(): double&lt;br&gt;&amp;nbsp;+ setBulletDamage(double): void&lt;br&gt;&amp;nbsp;+ getTarget(): Monster&lt;br&gt;&amp;nbsp;+ setTarget(Monster target): void" style="text;strokeColor=none;fillColor=none;align=left;verticalAlign=top;spacingLeft=4;spacingRight=4;overflow=hidden;rotatable=0;points=[[0,0.5],[1,0.5]];portConstraint=eastwest;whiteSpace=wrap;html=1;" vertex="1" parent="zSwx9xJ70yb3x-qx0YBj-26">
          <mxGeometry y="98" width="160" height="162" as="geometry" />
        </mxCell>
        <mxCell id="zSwx9xJ70yb3x-qx0YBj-115" style="edgeStyle=orthogonalEdgeStyle;rounded=0;orthogonalLoop=1;jettySize=auto;html=1;endArrow=open;endFill=0;" edge="1" parent="1" source="zSwx9xJ70yb3x-qx0YBj-5" target="zSwx9xJ70yb3x-qx0YBj-97">
          <mxGeometry relative="1" as="geometry">
            <mxPoint x="760" y="-410" as="targetPoint" />
            <Array as="points">
              <mxPoint x="1520" y="-423" />
            </Array>
          </mxGeometry>
        </mxCell>
        <mxCell id="zSwx9xJ70yb3x-qx0YBj-116" style="edgeStyle=orthogonalEdgeStyle;rounded=0;orthogonalLoop=1;jettySize=auto;html=1;entryX=0.902;entryY=1.001;entryDx=0;entryDy=0;entryPerimeter=0;dashed=1;endArrow=open;endFill=0;" edge="1" parent="1" source="zSwx9xJ70yb3x-qx0YBj-5" target="zSwx9xJ70yb3x-qx0YBj-57">
          <mxGeometry relative="1" as="geometry">
            <Array as="points">
              <mxPoint x="1410" y="980" />
              <mxPoint x="182" y="980" />
            </Array>
          </mxGeometry>
        </mxCell>
        <mxCell id="zSwx9xJ70yb3x-qx0YBj-119" style="edgeStyle=orthogonalEdgeStyle;rounded=0;orthogonalLoop=1;jettySize=auto;html=1;entryX=0.999;entryY=0.243;entryDx=0;entryDy=0;entryPerimeter=0;endArrow=open;endFill=0;" edge="1" parent="1">
          <mxGeometry relative="1" as="geometry">
            <mxPoint x="800" y="260" as="sourcePoint" />
            <mxPoint x="219.99999999999994" y="107.78999999999968" as="targetPoint" />
            <Array as="points">
              <mxPoint x="800" y="108" />
            </Array>
          </mxGeometry>
        </mxCell>
        <mxCell id="zSwx9xJ70yb3x-qx0YBj-120" style="edgeStyle=orthogonalEdgeStyle;rounded=0;orthogonalLoop=1;jettySize=auto;html=1;entryX=1.003;entryY=0.178;entryDx=0;entryDy=0;entryPerimeter=0;endArrow=open;endFill=0;" edge="1" parent="1" source="zSwx9xJ70yb3x-qx0YBj-13" target="zSwx9xJ70yb3x-qx0YBj-57">
          <mxGeometry relative="1" as="geometry">
            <Array as="points">
              <mxPoint x="470" y="-49" />
              <mxPoint x="470" y="391" />
            </Array>
          </mxGeometry>
        </mxCell>
        <mxCell id="zSwx9xJ70yb3x-qx0YBj-121" style="edgeStyle=orthogonalEdgeStyle;rounded=0;orthogonalLoop=1;jettySize=auto;html=1;entryX=1.011;entryY=0.589;entryDx=0;entryDy=0;entryPerimeter=0;endArrow=open;endFill=0;" edge="1" parent="1" source="zSwx9xJ70yb3x-qx0YBj-85" target="zSwx9xJ70yb3x-qx0YBj-57">
          <mxGeometry relative="1" as="geometry">
            <Array as="points">
              <mxPoint x="1140" y="556" />
            </Array>
          </mxGeometry>
        </mxCell>
        <mxCell id="zSwx9xJ70yb3x-qx0YBj-122" style="edgeStyle=orthogonalEdgeStyle;rounded=0;orthogonalLoop=1;jettySize=auto;html=1;entryX=1.023;entryY=0.639;entryDx=0;entryDy=0;entryPerimeter=0;endArrow=open;endFill=0;" edge="1" parent="1" source="zSwx9xJ70yb3x-qx0YBj-85" target="zSwx9xJ70yb3x-qx0YBj-48">
          <mxGeometry relative="1" as="geometry">
            <Array as="points">
              <mxPoint x="1110" y="580" />
              <mxPoint x="250" y="580" />
              <mxPoint x="250" y="192" />
            </Array>
          </mxGeometry>
        </mxCell>
        <mxCell id="zSwx9xJ70yb3x-qx0YBj-123" style="edgeStyle=orthogonalEdgeStyle;rounded=0;orthogonalLoop=1;jettySize=auto;html=1;endArrow=open;endFill=0;" edge="1" parent="1" source="zSwx9xJ70yb3x-qx0YBj-85">
          <mxGeometry relative="1" as="geometry">
            <mxPoint x="570" y="680" as="targetPoint" />
            <Array as="points">
              <mxPoint x="1180" y="680" />
              <mxPoint x="570" y="680" />
            </Array>
          </mxGeometry>
        </mxCell>
        <mxCell id="zSwx9xJ70yb3x-qx0YBj-124" style="edgeStyle=orthogonalEdgeStyle;rounded=0;orthogonalLoop=1;jettySize=auto;html=1;entryX=0;entryY=0;entryDx=195;entryDy=75.5;entryPerimeter=0;endArrow=open;endFill=0;" edge="1" parent="1" source="zSwx9xJ70yb3x-qx0YBj-85" target="zSwx9xJ70yb3x-qx0YBj-31">
          <mxGeometry relative="1" as="geometry">
            <Array as="points">
              <mxPoint x="1200" y="-244" />
            </Array>
          </mxGeometry>
        </mxCell>
        <mxCell id="zSwx9xJ70yb3x-qx0YBj-128" style="edgeStyle=orthogonalEdgeStyle;rounded=0;orthogonalLoop=1;jettySize=auto;html=1;entryX=1;entryY=0.456;entryDx=0;entryDy=0;entryPerimeter=0;endArrow=open;endFill=0;" edge="1" parent="1" source="zSwx9xJ70yb3x-qx0YBj-85" target="zSwx9xJ70yb3x-qx0YBj-97">
          <mxGeometry relative="1" as="geometry">
            <Array as="points">
              <mxPoint x="1220" y="-401" />
            </Array>
          </mxGeometry>
        </mxCell>
        <mxCell id="zSwx9xJ70yb3x-qx0YBj-129" style="edgeStyle=orthogonalEdgeStyle;rounded=0;orthogonalLoop=1;jettySize=auto;html=1;entryX=1.013;entryY=0.228;entryDx=0;entryDy=0;entryPerimeter=0;endArrow=open;endFill=0;" edge="1" parent="1" source="zSwx9xJ70yb3x-qx0YBj-17" target="zSwx9xJ70yb3x-qx0YBj-57">
          <mxGeometry relative="1" as="geometry">
            <Array as="points">
              <mxPoint x="630" y="411" />
            </Array>
          </mxGeometry>
        </mxCell>
        <mxCell id="zSwx9xJ70yb3x-qx0YBj-136" style="edgeStyle=orthogonalEdgeStyle;rounded=0;orthogonalLoop=1;jettySize=auto;html=1;entryX=0.154;entryY=1.006;entryDx=0;entryDy=0;entryPerimeter=0;endArrow=open;endFill=0;" edge="1" parent="1" source="zSwx9xJ70yb3x-qx0YBj-31" target="zSwx9xJ70yb3x-qx0YBj-88">
          <mxGeometry relative="1" as="geometry">
            <Array as="points">
              <mxPoint x="358" y="510" />
              <mxPoint x="1024" y="510" />
            </Array>
          </mxGeometry>
        </mxCell>
        <mxCell id="zSwx9xJ70yb3x-qx0YBj-137" style="edgeStyle=orthogonalEdgeStyle;rounded=0;orthogonalLoop=1;jettySize=auto;html=1;entryX=1.003;entryY=0.105;entryDx=0;entryDy=0;entryPerimeter=0;endArrow=open;endFill=0;" edge="1" parent="1" source="zSwx9xJ70yb3x-qx0YBj-97" target="zSwx9xJ70yb3x-qx0YBj-57">
          <mxGeometry relative="1" as="geometry">
            <Array as="points">
              <mxPoint x="510" y="-390" />
              <mxPoint x="510" y="362" />
            </Array>
          </mxGeometry>
        </mxCell>
        <mxCell id="zSwx9xJ70yb3x-qx0YBj-138" style="edgeStyle=orthogonalEdgeStyle;rounded=0;orthogonalLoop=1;jettySize=auto;html=1;entryX=0.298;entryY=0.021;entryDx=0;entryDy=0;entryPerimeter=0;endArrow=open;endFill=0;" edge="1" parent="1" source="zSwx9xJ70yb3x-qx0YBj-97" target="zSwx9xJ70yb3x-qx0YBj-30">
          <mxGeometry relative="1" as="geometry">
            <Array as="points">
              <mxPoint x="480" y="-390" />
              <mxPoint x="480" y="175" />
              <mxPoint x="430" y="175" />
            </Array>
          </mxGeometry>
        </mxCell>
        <mxCell id="zSwx9xJ70yb3x-qx0YBj-139" style="edgeStyle=orthogonalEdgeStyle;rounded=0;orthogonalLoop=1;jettySize=auto;html=1;entryX=0;entryY=0;entryDx=195;entryDy=137;entryPerimeter=0;endArrow=open;endFill=0;" edge="1" parent="1" source="zSwx9xJ70yb3x-qx0YBj-97" target="zSwx9xJ70yb3x-qx0YBj-31">
          <mxGeometry relative="1" as="geometry">
            <Array as="points">
              <mxPoint x="658" y="-183" />
            </Array>
          </mxGeometry>
        </mxCell>
        <mxCell id="zSwx9xJ70yb3x-qx0YBj-140" style="edgeStyle=orthogonalEdgeStyle;rounded=0;orthogonalLoop=1;jettySize=auto;html=1;entryX=0.831;entryY=1.019;entryDx=0;entryDy=0;entryPerimeter=0;" edge="1" parent="1" source="zSwx9xJ70yb3x-qx0YBj-13" target="zSwx9xJ70yb3x-qx0YBj-97">
          <mxGeometry relative="1" as="geometry">
            <Array as="points">
              <mxPoint x="722" y="-80" />
            </Array>
          </mxGeometry>
        </mxCell>
        <mxCell id="zSwx9xJ70yb3x-qx0YBj-141" style="edgeStyle=orthogonalEdgeStyle;rounded=0;orthogonalLoop=1;jettySize=auto;html=1;entryX=0.75;entryY=0;entryDx=0;entryDy=0;endArrow=open;endFill=0;" edge="1" parent="1" source="zSwx9xJ70yb3x-qx0YBj-97" target="zSwx9xJ70yb3x-qx0YBj-85">
          <mxGeometry relative="1" as="geometry" />
        </mxCell>
      </root>
    </mxGraphModel>
  </diagram>
</mxfile>
